<svg width="80" height="19" viewBox="0 0 80 19" fill="none" xmlns="http://www.w3.org/2000/svg">
<path d="M8.55 18H0.75V17.05C1.41667 16.6833 2.09167 16.4417 2.775 16.325V2.175C2.44167 2.125 2.09167 2.03333 1.725 1.9C1.35833 1.76667 1.03333 1.61667 0.75 1.45V0.499999H8.55V1.45C8.25 1.63333 7.91667 1.79167 7.55 1.925C7.2 2.04167 6.85833 2.125 6.525 2.175V16.325C6.85833 16.3917 7.2 16.4833 7.55 16.6C7.91667 16.7167 8.25 16.8667 8.55 17.05V18ZM21.7768 0.499999H28.4768V1.45C28.1934 1.63333 27.8684 1.79167 27.5018 1.925C27.1351 2.04167 26.8018 2.125 26.5018 2.175L21.7518 8.2C22.1351 8.73333 22.5851 9.34167 23.1018 10.025C23.6184 10.6917 24.1684 11.3917 24.7518 12.125C25.3351 12.8417 25.9351 13.575 26.5518 14.325C27.1684 15.0583 27.7684 15.7583 28.3518 16.425L29.5518 17.15V18H25.2018L24.2018 17.3C23.8018 16.8 23.3768 16.25 22.9268 15.65C22.4934 15.0333 22.0601 14.4 21.6268 13.75C21.1934 13.0833 20.7684 12.4167 20.3518 11.75C19.9351 11.0833 19.5434 10.4333 19.1768 9.8H18.1018V16.325C18.4684 16.3917 18.8018 16.4917 19.1018 16.625C19.4018 16.7583 19.6601 16.9 19.8768 17.05V18H12.3018V17.05C12.6351 16.8833 12.9768 16.7417 13.3268 16.625C13.6768 16.4917 14.0184 16.3917 14.3518 16.325V2.175C13.9684 2.125 13.5934 2.03333 13.2268 1.9C12.8768 1.76667 12.5684 1.61667 12.3018 1.45V0.499999H19.8768V1.45C19.6601 1.58333 19.3934 1.71667 19.0768 1.85C18.7768 1.98333 18.4518 2.09167 18.1018 2.175V8.525L19.5768 8.175L23.6018 2.175C23.2684 2.10833 22.9351 2.00833 22.6018 1.875C22.2851 1.725 22.0101 1.58333 21.7768 1.45V0.499999ZM40.6008 18H32.8008V17.05C33.4674 16.6833 34.1424 16.4417 34.8258 16.325V2.175C34.4924 2.125 34.1424 2.03333 33.7758 1.9C33.4091 1.76667 33.0841 1.61667 32.8008 1.45V0.499999H40.6008V1.45C40.3008 1.63333 39.9674 1.79167 39.6008 1.925C39.2508 2.04167 38.9091 2.125 38.5758 2.175V16.325C38.9091 16.3917 39.2508 16.4833 39.6008 16.6C39.9674 16.7167 40.3008 16.8667 40.6008 17.05V18ZM44.3525 18V17.05C44.6359 16.8833 44.9525 16.7417 45.3025 16.625C45.6525 16.4917 46.0192 16.3917 46.4025 16.325V2.175C46.0192 2.09167 45.6442 1.99167 45.2775 1.875C44.9275 1.74167 44.6192 1.6 44.3525 1.45V0.499999H47.2525C47.5359 0.499999 47.8859 0.491666 48.3025 0.474999C48.7192 0.458333 49.1525 0.441666 49.6025 0.425C50.0525 0.391666 50.4859 0.366666 50.9025 0.349999C51.3359 0.316666 51.7025 0.3 52.0025 0.3C53.4525 0.3 54.7442 0.491666 55.8775 0.874998C57.0275 1.25833 57.9942 1.81667 58.7775 2.55C59.5775 3.28333 60.1859 4.19167 60.6025 5.275C61.0359 6.35833 61.2525 7.60833 61.2525 9.025C61.2525 10.4083 61.0525 11.6667 60.6525 12.8C60.2525 13.9333 59.6525 14.9 58.8525 15.7C58.0525 16.5 57.0359 17.125 55.8025 17.575C54.5859 18.0083 53.1525 18.225 51.5025 18.225C51.2859 18.225 50.9942 18.2083 50.6275 18.175C50.2609 18.1583 49.8692 18.1333 49.4525 18.1C49.0359 18.0833 48.6192 18.0583 48.2025 18.025C47.7859 18.0083 47.4192 18 47.1025 18H44.3525ZM51.6775 1.925C51.3775 1.925 51.0775 1.93333 50.7775 1.95C50.4775 1.96667 50.2192 1.99167 50.0025 2.025V16.5C50.0692 16.5167 50.1859 16.5333 50.3525 16.55C50.5192 16.55 50.6859 16.5583 50.8525 16.575C51.0359 16.575 51.2109 16.5833 51.3775 16.6C51.5442 16.6 51.6692 16.6 51.7525 16.6C52.7192 16.6 53.5359 16.4 54.2025 16C54.8859 15.6 55.4442 15.0583 55.8775 14.375C56.3109 13.6917 56.6275 12.8917 56.8275 11.975C57.0275 11.0583 57.1275 10.0833 57.1275 9.05C57.1275 8.13333 57.0192 7.25 56.8025 6.4C56.6025 5.55 56.2859 4.79167 55.8525 4.125C55.4192 3.45833 54.8525 2.925 54.1525 2.525C53.4692 2.125 52.6442 1.925 51.6775 1.925ZM77.5754 12.725H78.6254C78.6921 13.075 78.7504 13.475 78.8004 13.925C78.8671 14.3583 78.9254 14.8167 78.9754 15.3C79.0254 15.7667 79.0587 16.2333 79.0754 16.7C79.1087 17.1667 79.1254 17.6 79.1254 18H65.0254V16.375L74.7254 2.125H68.5254L67.0504 5.7H66.0004C65.9171 5.33333 65.8421 4.91667 65.7754 4.45C65.7087 3.98333 65.6504 3.51667 65.6004 3.05C65.5504 2.56667 65.5171 2.10833 65.5004 1.675C65.4837 1.225 65.4754 0.833333 65.4754 0.499999H78.8254V2.125L69.1754 16.375H76.0254L77.5754 12.725Z" fill="#171717"/>
</svg>
